<svg xmlns="http://www.w3.org/2000/svg" viewBox="0 0 120 120"><defs>
<linearGradient id="met" x1="0" y1="0" x2="0" y2="1"><stop offset="0" stop-color="#F4F6FA"/><stop offset=".45" stop-color="#C6CCD9"/><stop offset="1" stop-color="#8E95A6"/></linearGradient>
<linearGradient id="stl" x1="0" y1="0" x2="0" y2="1"><stop offset="0" stop-color="#4C5263"/><stop offset="1" stop-color="#252935"/></linearGradient>
<linearGradient id="rub" x1="0" y1="0" x2="0" y2="1"><stop offset="0" stop-color="#3B4152"/><stop offset=".5" stop-color="#242836"/><stop offset="1" stop-color="#161922"/></linearGradient>
<linearGradient id="pad" x1="0" y1="0" x2="0" y2="1"><stop offset="0" stop-color="#f86486"/><stop offset="1" stop-color="#b23151"/></linearGradient>
<radialGradient id="pl" cx=".36" cy=".3" r="1"><stop offset="0" stop-color="#f987a1"/><stop offset=".55" stop-color="#F63D68"/><stop offset="1" stop-color="#9b2d4a"/></radialGradient>
<linearGradient id="plv" x1="0" y1="0" x2="0" y2="1"><stop offset="0" stop-color="#f97b98"/><stop offset=".5" stop-color="#F63D68"/><stop offset="1" stop-color="#a42e4d"/></linearGradient>
<radialGradient id="glow" cx=".5" cy=".45" r=".62"><stop offset="0" stop-color="#F63D68" stop-opacity=".17"/><stop offset="1" stop-color="#F63D68" stop-opacity="0"/></radialGradient>
<radialGradient id="shd" cx=".5" cy=".5" r=".5"><stop offset="0" stop-color="#12141C" stop-opacity=".2"/><stop offset=".65" stop-color="#12141C" stop-opacity=".08"/><stop offset="1" stop-color="#12141C" stop-opacity="0"/></radialGradient>
</defs><ellipse cx="60" cy="54" rx="55" ry="47" fill="url(#glow)"/><ellipse cx="60" cy="101" rx="40" ry="7" fill="url(#shd)"/>
<rect x="41" y="79" width="5" height="20" rx="2.2" fill="url(#stl)"/>
<rect x="74" y="79" width="5" height="20" rx="2.2" fill="url(#stl)"/>
<rect x="37" y="96.4" width="13" height="3.6" rx="1.8" fill="url(#stl)"/>
<rect x="70" y="96.4" width="13" height="3.6" rx="1.8" fill="url(#stl)"/>
<rect x="32" y="70" width="56" height="11" rx="5.5" fill="url(#pad)"/>
<rect x="35" y="71.8" width="50" height="3.2" rx="1.6" fill="#fff" opacity=".16"/><g transform="translate(0 0)"><path d="M22 40 h18 l5 4 h30 l5 -4 h18" fill="none" stroke="url(#met)" stroke-width="4.6" stroke-linecap="round" stroke-linejoin="round"/></g><rect x="24" y="29" width="6" height="22" rx="2.608695652173913" fill="url(#plv)"/><rect x="25.2" y="30.54" width="1.56" height="18.919999999999998" rx="0.78" fill="#fff" opacity=".16"/><rect x="90" y="29" width="6" height="22" rx="2.608695652173913" fill="url(#plv)"/><rect x="91.2" y="30.54" width="1.56" height="18.919999999999998" rx="0.78" fill="#fff" opacity=".16"/><path d="M60 48 v8" stroke="#9AA2B5" stroke-width="2" stroke-dasharray="1.5 3.5" stroke-linecap="round" opacity=".7"/></svg>