<svg xmlns="http://www.w3.org/2000/svg" viewBox="0 0 120 120"><defs>
<linearGradient id="met" x1="0" y1="0" x2="0" y2="1"><stop offset="0" stop-color="#F4F6FA"/><stop offset=".45" stop-color="#C6CCD9"/><stop offset="1" stop-color="#8E95A6"/></linearGradient>
<linearGradient id="stl" x1="0" y1="0" x2="0" y2="1"><stop offset="0" stop-color="#4C5263"/><stop offset="1" stop-color="#252935"/></linearGradient>
<linearGradient id="rub" x1="0" y1="0" x2="0" y2="1"><stop offset="0" stop-color="#3B4152"/><stop offset=".5" stop-color="#242836"/><stop offset="1" stop-color="#161922"/></linearGradient>
<linearGradient id="pad" x1="0" y1="0" x2="0" y2="1"><stop offset="0" stop-color="#957bf9"/><stop offset="1" stop-color="#5b45b6"/></linearGradient>
<radialGradient id="pl" cx=".36" cy=".3" r="1"><stop offset="0" stop-color="#ad99fb"/><stop offset=".55" stop-color="#7A5AF8"/><stop offset="1" stop-color="#503ea0"/></radialGradient>
<linearGradient id="plv" x1="0" y1="0" x2="0" y2="1"><stop offset="0" stop-color="#a58ffa"/><stop offset=".5" stop-color="#7A5AF8"/><stop offset="1" stop-color="#5541a9"/></linearGradient>
<radialGradient id="glow" cx=".5" cy=".45" r=".62"><stop offset="0" stop-color="#7A5AF8" stop-opacity=".17"/><stop offset="1" stop-color="#7A5AF8" stop-opacity="0"/></radialGradient>
<radialGradient id="shd" cx=".5" cy=".5" r=".5"><stop offset="0" stop-color="#12141C" stop-opacity=".2"/><stop offset=".65" stop-color="#12141C" stop-opacity=".08"/><stop offset="1" stop-color="#12141C" stop-opacity="0"/></radialGradient>
</defs><ellipse cx="60" cy="54" rx="55" ry="47" fill="url(#glow)"/><ellipse cx="60" cy="101" rx="38" ry="7" fill="url(#shd)"/><rect x="10" y="59.7" width="100" height="4.6" rx="2.3" fill="url(#met)"/><rect x="12" y="59.7" width="96" height="1.5" rx=".75" fill="#fff" opacity=".4"/><rect x="24" y="49" width="6.4" height="26" rx="2.7826086956521743" fill="url(#plv)"/><rect x="25.28" y="50.82" width="1.6640000000000001" height="22.36" rx="0.8320000000000001" fill="#fff" opacity=".16"/><rect x="89.6" y="49" width="6.4" height="26" rx="2.7826086956521743" fill="url(#plv)"/><rect x="90.88" y="50.82" width="1.6640000000000001" height="22.36" rx="0.8320000000000001" fill="#fff" opacity=".16"/><rect x="32.6" y="52.5" width="5" height="19" rx="2.173913043478261" fill="url(#plv)"/><rect x="33.6" y="53.83" width="1.3" height="16.34" rx="0.65" fill="#fff" opacity=".16"/><rect x="82.4" y="52.5" width="5" height="19" rx="2.173913043478261" fill="url(#plv)"/><rect x="83.4" y="53.83" width="1.3" height="16.34" rx="0.65" fill="#fff" opacity=".16"/><rect x="39" y="57.4" width="2.6" height="9.2" rx="1.3" fill="url(#stl)"/><rect x="78.4" y="57.4" width="2.6" height="9.2" rx="1.3" fill="url(#stl)"/><path d="M30 40 C 40 28, 80 28, 90 40" fill="none" stroke="#9AA2B5" stroke-width="2.2" stroke-dasharray="1.5 4.5" stroke-linecap="round" opacity=".75"/>
   <path d="M87 36 l3 4 M90 40 l-4.5 .5" stroke="#9AA2B5" stroke-width="2" stroke-linecap="round" opacity=".75"/></svg>