<svg xmlns="http://www.w3.org/2000/svg" viewBox="0 0 120 120"><defs>
<linearGradient id="met" x1="0" y1="0" x2="0" y2="1"><stop offset="0" stop-color="#F4F6FA"/><stop offset=".45" stop-color="#C6CCD9"/><stop offset="1" stop-color="#8E95A6"/></linearGradient>
<linearGradient id="stl" x1="0" y1="0" x2="0" y2="1"><stop offset="0" stop-color="#4C5263"/><stop offset="1" stop-color="#252935"/></linearGradient>
<linearGradient id="rub" x1="0" y1="0" x2="0" y2="1"><stop offset="0" stop-color="#3B4152"/><stop offset=".5" stop-color="#242836"/><stop offset="1" stop-color="#161922"/></linearGradient>
<linearGradient id="pad" x1="0" y1="0" x2="0" y2="1"><stop offset="0" stop-color="#957bf9"/><stop offset="1" stop-color="#5b45b6"/></linearGradient>
<radialGradient id="pl" cx=".36" cy=".3" r="1"><stop offset="0" stop-color="#ad99fb"/><stop offset=".55" stop-color="#7A5AF8"/><stop offset="1" stop-color="#503ea0"/></radialGradient>
<linearGradient id="plv" x1="0" y1="0" x2="0" y2="1"><stop offset="0" stop-color="#a58ffa"/><stop offset=".5" stop-color="#7A5AF8"/><stop offset="1" stop-color="#5541a9"/></linearGradient>
<radialGradient id="glow" cx=".5" cy=".45" r=".62"><stop offset="0" stop-color="#7A5AF8" stop-opacity=".17"/><stop offset="1" stop-color="#7A5AF8" stop-opacity="0"/></radialGradient>
<radialGradient id="shd" cx=".5" cy=".5" r=".5"><stop offset="0" stop-color="#12141C" stop-opacity=".2"/><stop offset=".65" stop-color="#12141C" stop-opacity=".08"/><stop offset="1" stop-color="#12141C" stop-opacity="0"/></radialGradient>
</defs><ellipse cx="60" cy="54" rx="55" ry="47" fill="url(#glow)"/><ellipse cx="58" cy="101" rx="40" ry="7" fill="url(#shd)"/>
<rect x="42" y="74" width="5" height="25" rx="2.2" fill="url(#stl)"/>
<rect x="72" y="74" width="5" height="25" rx="2.2" fill="url(#stl)"/>
<rect x="37" y="96.4" width="15" height="3.6" rx="1.8" fill="url(#stl)"/>
<rect x="67" y="96.4" width="15" height="3.6" rx="1.8" fill="url(#stl)"/>
<rect x="38" y="70" width="34" height="9" rx="4.5" fill="url(#pad)"/>
<g transform="translate(66 74) rotate(-38)"><rect x="-3" y="-40" width="11" height="42" rx="5" fill="url(#pad)"/><rect x="-1" y="-38" width="3.4" height="38" rx="1.7" fill="#fff" opacity=".15"/></g><g transform="translate(30 74) rotate(8) scale(0.9)">
<rect x="-12" y="-2.1" width="24" height="4.2" rx="2.1" fill="url(#met)"/>
<rect x="-10" y="-2.1" width="20" height="1.4" rx=".7" fill="#fff" opacity=".38"/>
<rect x="-20" y="-8.5" width="9" height="17" rx="3.8" fill="url(#rub)"/>
<rect x="11" y="-8.5" width="9" height="17" rx="3.8" fill="url(#rub)"/>
<rect x="-18.6" y="-7.1" width="6.2" height="4.4" rx="2.2" fill="#fff" opacity=".12"/>
<rect x="12.4" y="-7.1" width="6.2" height="4.4" rx="2.2" fill="#fff" opacity=".12"/>
<rect x="-11.6" y="-5" width="2.8" height="10" rx="1.4" fill="url(#plv)"/>
<rect x="8.8" y="-5" width="2.8" height="10" rx="1.4" fill="url(#plv)"/>
</g><path d="M50 66 C 42 60, 34 62, 30 68" fill="none" stroke="#9AA2B5" stroke-width="2" stroke-dasharray="1.5 4" stroke-linecap="round" opacity=".7"/></svg>