<svg xmlns="http://www.w3.org/2000/svg" viewBox="0 0 120 120"><defs>
<linearGradient id="met" x1="0" y1="0" x2="0" y2="1"><stop offset="0" stop-color="#F4F6FA"/><stop offset=".45" stop-color="#C6CCD9"/><stop offset="1" stop-color="#8E95A6"/></linearGradient>
<linearGradient id="stl" x1="0" y1="0" x2="0" y2="1"><stop offset="0" stop-color="#4C5263"/><stop offset="1" stop-color="#252935"/></linearGradient>
<linearGradient id="rub" x1="0" y1="0" x2="0" y2="1"><stop offset="0" stop-color="#3B4152"/><stop offset=".5" stop-color="#242836"/><stop offset="1" stop-color="#161922"/></linearGradient>
<linearGradient id="pad" x1="0" y1="0" x2="0" y2="1"><stop offset="0" stop-color="#f7ad3c"/><stop offset="1" stop-color="#b17010"/></linearGradient>
<radialGradient id="pl" cx=".36" cy=".3" r="1"><stop offset="0" stop-color="#f9bf68"/><stop offset=".55" stop-color="#F5980B"/><stop offset="1" stop-color="#9a6312"/></radialGradient>
<linearGradient id="plv" x1="0" y1="0" x2="0" y2="1"><stop offset="0" stop-color="#f8b959"/><stop offset=".5" stop-color="#F5980B"/><stop offset="1" stop-color="#a36811"/></linearGradient>
<radialGradient id="glow" cx=".5" cy=".45" r=".62"><stop offset="0" stop-color="#F5980B" stop-opacity=".17"/><stop offset="1" stop-color="#F5980B" stop-opacity="0"/></radialGradient>
<radialGradient id="shd" cx=".5" cy=".5" r=".5"><stop offset="0" stop-color="#12141C" stop-opacity=".2"/><stop offset=".65" stop-color="#12141C" stop-opacity=".08"/><stop offset="1" stop-color="#12141C" stop-opacity="0"/></radialGradient>
</defs><ellipse cx="60" cy="54" rx="55" ry="47" fill="url(#glow)"/><ellipse cx="60" cy="101" rx="40" ry="7" fill="url(#shd)"/><rect x="43" y="88" width="34" height="6" rx="3" fill="url(#stl)"/><rect x="49" y="82" width="22" height="6" rx="3" fill="url(#rub)"/><rect x="8" y="27.7" width="104" height="4.6" rx="2.3" fill="url(#met)"/><rect x="10" y="27.7" width="100" height="1.5" rx=".75" fill="#fff" opacity=".4"/><rect x="24" y="16" width="6.6" height="28" rx="2.869565217391304" fill="url(#plv)"/><rect x="25.32" y="17.96" width="1.716" height="24.08" rx="0.858" fill="#fff" opacity=".16"/><rect x="89.4" y="16" width="6.6" height="28" rx="2.869565217391304" fill="url(#plv)"/><rect x="90.72" y="17.96" width="1.716" height="24.08" rx="0.858" fill="#fff" opacity=".16"/><rect x="32.6" y="20" width="5.2" height="20" rx="2.2608695652173916" fill="url(#plv)"/><rect x="33.64" y="21.4" width="1.352" height="17.2" rx="0.676" fill="#fff" opacity=".16"/><rect x="82.2" y="20" width="5.2" height="20" rx="2.2608695652173916" fill="url(#plv)"/><rect x="83.24000000000001" y="21.4" width="1.352" height="17.2" rx="0.676" fill="#fff" opacity=".16"/><rect x="39.2" y="25.4" width="2.6" height="9.2" rx="1.3" fill="url(#stl)"/><rect x="78.2" y="25.4" width="2.6" height="9.2" rx="1.3" fill="url(#stl)"/><line x1="38" y1="44" x2="38" y2="56" stroke="#9AA2B5" stroke-width="2" stroke-linecap="round" opacity=".55"/><line x1="82" y1="44" x2="82" y2="56" stroke="#9AA2B5" stroke-width="2" stroke-linecap="round" opacity=".55"/></svg>