<svg xmlns="http://www.w3.org/2000/svg" viewBox="0 0 120 120"><defs>
<linearGradient id="met" x1="0" y1="0" x2="0" y2="1"><stop offset="0" stop-color="#F4F6FA"/><stop offset=".45" stop-color="#C6CCD9"/><stop offset="1" stop-color="#8E95A6"/></linearGradient>
<linearGradient id="stl" x1="0" y1="0" x2="0" y2="1"><stop offset="0" stop-color="#4C5263"/><stop offset="1" stop-color="#252935"/></linearGradient>
<linearGradient id="rub" x1="0" y1="0" x2="0" y2="1"><stop offset="0" stop-color="#3B4152"/><stop offset=".5" stop-color="#242836"/><stop offset="1" stop-color="#161922"/></linearGradient>
<linearGradient id="pad" x1="0" y1="0" x2="0" y2="1"><stop offset="0" stop-color="#727cff"/><stop offset="1" stop-color="#3d46bb"/></linearGradient>
<radialGradient id="pl" cx=".36" cy=".3" r="1"><stop offset="0" stop-color="#9299ff"/><stop offset=".55" stop-color="#4F5BFF"/><stop offset="1" stop-color="#373fa4"/></radialGradient>
<linearGradient id="plv" x1="0" y1="0" x2="0" y2="1"><stop offset="0" stop-color="#878fff"/><stop offset=".5" stop-color="#4F5BFF"/><stop offset="1" stop-color="#3941ad"/></linearGradient>
<radialGradient id="glow" cx=".5" cy=".45" r=".62"><stop offset="0" stop-color="#4F5BFF" stop-opacity=".17"/><stop offset="1" stop-color="#4F5BFF" stop-opacity="0"/></radialGradient>
<radialGradient id="shd" cx=".5" cy=".5" r=".5"><stop offset="0" stop-color="#12141C" stop-opacity=".2"/><stop offset=".65" stop-color="#12141C" stop-opacity=".08"/><stop offset="1" stop-color="#12141C" stop-opacity="0"/></radialGradient>
</defs><ellipse cx="60" cy="54" rx="55" ry="47" fill="url(#glow)"/><ellipse cx="60" cy="101" rx="42" ry="7" fill="url(#shd)"/>
<rect x="38" y="75" width="5" height="24" rx="2.2" fill="url(#stl)"/>
<rect x="77" y="75" width="5" height="24" rx="2.2" fill="url(#stl)"/>
<rect x="34" y="96.4" width="13" height="3.6" rx="1.8" fill="url(#stl)"/>
<rect x="73" y="96.4" width="13" height="3.6" rx="1.8" fill="url(#stl)"/>
<rect x="29" y="66" width="62" height="11" rx="5.5" fill="url(#pad)"/>
<rect x="32" y="67.8" width="56" height="3.2" rx="1.6" fill="#fff" opacity=".16"/><rect x="8" y="35.7" width="104" height="4.6" rx="2.3" fill="url(#met)"/><rect x="10" y="35.7" width="100" height="1.5" rx=".75" fill="#fff" opacity=".4"/><rect x="23" y="22" width="7" height="32" rx="3.0434782608695654" fill="url(#plv)"/><rect x="24.4" y="24.240000000000002" width="1.82" height="27.52" rx="0.91" fill="#fff" opacity=".16"/><rect x="90" y="22" width="7" height="32" rx="3.0434782608695654" fill="url(#plv)"/><rect x="91.4" y="24.240000000000002" width="1.82" height="27.52" rx="0.91" fill="#fff" opacity=".16"/><rect x="32.5" y="26.5" width="5.6" height="23" rx="2.4347826086956523" fill="url(#plv)"/><rect x="33.62" y="28.11" width="1.456" height="19.78" rx="0.728" fill="#fff" opacity=".16"/><rect x="81.9" y="26.5" width="5.6" height="23" rx="2.4347826086956523" fill="url(#plv)"/><rect x="83.02000000000001" y="28.11" width="1.456" height="19.78" rx="0.728" fill="#fff" opacity=".16"/><rect x="39.5" y="33.4" width="2.6" height="9.2" rx="1.3" fill="url(#stl)"/><rect x="77.9" y="33.4" width="2.6" height="9.2" rx="1.3" fill="url(#stl)"/></svg>