<svg xmlns="http://www.w3.org/2000/svg" viewBox="0 0 120 120"><defs>
<linearGradient id="met" x1="0" y1="0" x2="0" y2="1"><stop offset="0" stop-color="#F4F6FA"/><stop offset=".45" stop-color="#C6CCD9"/><stop offset="1" stop-color="#8E95A6"/></linearGradient>
<linearGradient id="stl" x1="0" y1="0" x2="0" y2="1"><stop offset="0" stop-color="#4C5263"/><stop offset="1" stop-color="#252935"/></linearGradient>
<linearGradient id="rub" x1="0" y1="0" x2="0" y2="1"><stop offset="0" stop-color="#3B4152"/><stop offset=".5" stop-color="#242836"/><stop offset="1" stop-color="#161922"/></linearGradient>
<linearGradient id="pad" x1="0" y1="0" x2="0" y2="1"><stop offset="0" stop-color="#727cff"/><stop offset="1" stop-color="#3d46bb"/></linearGradient>
<radialGradient id="pl" cx=".36" cy=".3" r="1"><stop offset="0" stop-color="#9299ff"/><stop offset=".55" stop-color="#4F5BFF"/><stop offset="1" stop-color="#373fa4"/></radialGradient>
<linearGradient id="plv" x1="0" y1="0" x2="0" y2="1"><stop offset="0" stop-color="#878fff"/><stop offset=".5" stop-color="#4F5BFF"/><stop offset="1" stop-color="#3941ad"/></linearGradient>
<radialGradient id="glow" cx=".5" cy=".45" r=".62"><stop offset="0" stop-color="#4F5BFF" stop-opacity=".17"/><stop offset="1" stop-color="#4F5BFF" stop-opacity="0"/></radialGradient>
<radialGradient id="shd" cx=".5" cy=".5" r=".5"><stop offset="0" stop-color="#12141C" stop-opacity=".2"/><stop offset=".65" stop-color="#12141C" stop-opacity=".08"/><stop offset="1" stop-color="#12141C" stop-opacity="0"/></radialGradient>
</defs><ellipse cx="60" cy="54" rx="55" ry="47" fill="url(#glow)"/><ellipse cx="60" cy="101" rx="42" ry="7" fill="url(#shd)"/>
<rect x="76" y="20" width="9" height="76" rx="4" fill="url(#stl)"/>
<rect x="20" y="92" width="72" height="5" rx="2.5" fill="url(#stl)"/>
<g><rect x="72" y="58" width="17" height="6" rx="2.4" fill="url(#rub)"/><rect x="72" y="65.6" width="17" height="6" rx="2.4" fill="url(#plv)"/><rect x="72" y="73.2" width="17" height="6" rx="2.4" fill="url(#rub)"/><rect x="72" y="80.8" width="17" height="6" rx="2.4" fill="url(#rub)"/><rect x="72" y="88.4" width="17" height="6" rx="2.4" fill="url(#rub)"/></g>
<rect x="30" y="66" width="26" height="9" rx="4.5" fill="url(#pad)"/>
<g transform="translate(34 70) rotate(-14)"><rect x="-4" y="-34" width="10" height="36" rx="5" fill="url(#pad)"/></g>
<rect x="52" y="72" width="5" height="24" rx="2.4" fill="url(#stl)"/>
<path d="M62 44 h14" stroke="#39404F" stroke-width="3" stroke-linecap="round"/>
<rect x="52" y="39" width="12" height="10" rx="4" fill="url(#met)"/>
<rect x="54" y="41" width="8" height="2.4" rx="1.2" fill="#fff" opacity=".3"/></svg>