<svg xmlns="http://www.w3.org/2000/svg" viewBox="0 0 120 120"><defs>
<linearGradient id="met" x1="0" y1="0" x2="0" y2="1"><stop offset="0" stop-color="#F4F6FA"/><stop offset=".45" stop-color="#C6CCD9"/><stop offset="1" stop-color="#8E95A6"/></linearGradient>
<linearGradient id="stl" x1="0" y1="0" x2="0" y2="1"><stop offset="0" stop-color="#4C5263"/><stop offset="1" stop-color="#252935"/></linearGradient>
<linearGradient id="rub" x1="0" y1="0" x2="0" y2="1"><stop offset="0" stop-color="#3B4152"/><stop offset=".5" stop-color="#242836"/><stop offset="1" stop-color="#161922"/></linearGradient>
<linearGradient id="pad" x1="0" y1="0" x2="0" y2="1"><stop offset="0" stop-color="#f86486"/><stop offset="1" stop-color="#b23151"/></linearGradient>
<radialGradient id="pl" cx=".36" cy=".3" r="1"><stop offset="0" stop-color="#f987a1"/><stop offset=".55" stop-color="#F63D68"/><stop offset="1" stop-color="#9b2d4a"/></radialGradient>
<linearGradient id="plv" x1="0" y1="0" x2="0" y2="1"><stop offset="0" stop-color="#f97b98"/><stop offset=".5" stop-color="#F63D68"/><stop offset="1" stop-color="#a42e4d"/></linearGradient>
<radialGradient id="glow" cx=".5" cy=".45" r=".62"><stop offset="0" stop-color="#F63D68" stop-opacity=".17"/><stop offset="1" stop-color="#F63D68" stop-opacity="0"/></radialGradient>
<radialGradient id="shd" cx=".5" cy=".5" r=".5"><stop offset="0" stop-color="#12141C" stop-opacity=".2"/><stop offset=".65" stop-color="#12141C" stop-opacity=".08"/><stop offset="1" stop-color="#12141C" stop-opacity="0"/></radialGradient>
</defs><ellipse cx="60" cy="54" rx="55" ry="47" fill="url(#glow)"/><ellipse cx="60" cy="101" rx="42" ry="7" fill="url(#shd)"/>
<rect x="22" y="34" width="5.4" height="62" rx="2.6" fill="url(#stl)"/>
<rect x="92.6" y="34" width="5.4" height="62" rx="2.6" fill="url(#stl)"/>
<rect x="16" y="96.4" width="18" height="3.6" rx="1.8" fill="url(#stl)"/>
<rect x="86" y="96.4" width="18" height="3.6" rx="1.8" fill="url(#stl)"/>
<rect x="18" y="30" width="30" height="6.4" rx="3.2" fill="url(#met)"/>
<rect x="72" y="30" width="30" height="6.4" rx="3.2" fill="url(#met)"/>
<rect x="20" y="31.2" width="26" height="1.6" rx=".8" fill="#fff" opacity=".4"/>
<rect x="74" y="31.2" width="26" height="1.6" rx=".8" fill="#fff" opacity=".4"/>
<path d="M60 40 v10" stroke="#5A6172" stroke-width="2.4" stroke-dasharray="1.4 3" stroke-linecap="round"/><circle cx="60" cy="60" r="10.5" fill="url(#pl)"/><circle cx="60" cy="60" r="5.775" fill="none" stroke="#fff" stroke-opacity=".18" stroke-width="1.68"/><circle cx="60" cy="60" r="1.68" fill="#12141C" fill-opacity=".3"/></svg>