<svg xmlns="http://www.w3.org/2000/svg" viewBox="0 0 120 120"><defs>
<linearGradient id="met" x1="0" y1="0" x2="0" y2="1"><stop offset="0" stop-color="#F4F6FA"/><stop offset=".45" stop-color="#C6CCD9"/><stop offset="1" stop-color="#8E95A6"/></linearGradient>
<linearGradient id="stl" x1="0" y1="0" x2="0" y2="1"><stop offset="0" stop-color="#4C5263"/><stop offset="1" stop-color="#252935"/></linearGradient>
<linearGradient id="rub" x1="0" y1="0" x2="0" y2="1"><stop offset="0" stop-color="#3B4152"/><stop offset=".5" stop-color="#242836"/><stop offset="1" stop-color="#161922"/></linearGradient>
<linearGradient id="pad" x1="0" y1="0" x2="0" y2="1"><stop offset="0" stop-color="#727cff"/><stop offset="1" stop-color="#3d46bb"/></linearGradient>
<radialGradient id="pl" cx=".36" cy=".3" r="1"><stop offset="0" stop-color="#9299ff"/><stop offset=".55" stop-color="#4F5BFF"/><stop offset="1" stop-color="#373fa4"/></radialGradient>
<linearGradient id="plv" x1="0" y1="0" x2="0" y2="1"><stop offset="0" stop-color="#878fff"/><stop offset=".5" stop-color="#4F5BFF"/><stop offset="1" stop-color="#3941ad"/></linearGradient>
<radialGradient id="glow" cx=".5" cy=".45" r=".62"><stop offset="0" stop-color="#4F5BFF" stop-opacity=".17"/><stop offset="1" stop-color="#4F5BFF" stop-opacity="0"/></radialGradient>
<radialGradient id="shd" cx=".5" cy=".5" r=".5"><stop offset="0" stop-color="#12141C" stop-opacity=".2"/><stop offset=".65" stop-color="#12141C" stop-opacity=".08"/><stop offset="1" stop-color="#12141C" stop-opacity="0"/></radialGradient>
</defs><ellipse cx="60" cy="54" rx="55" ry="47" fill="url(#glow)"/><ellipse cx="60" cy="101" rx="40" ry="7" fill="url(#shd)"/>
<rect x="41" y="79" width="5" height="20" rx="2.2" fill="url(#stl)"/>
<rect x="74" y="79" width="5" height="20" rx="2.2" fill="url(#stl)"/>
<rect x="37" y="96.4" width="13" height="3.6" rx="1.8" fill="url(#stl)"/>
<rect x="70" y="96.4" width="13" height="3.6" rx="1.8" fill="url(#stl)"/>
<rect x="32" y="70" width="56" height="11" rx="5.5" fill="url(#pad)"/>
<rect x="35" y="71.8" width="50" height="3.2" rx="1.6" fill="#fff" opacity=".16"/><g transform="translate(34 40) rotate(-30) scale(0.9)">
<rect x="-12" y="-2.1" width="24" height="4.2" rx="2.1" fill="url(#met)"/>
<rect x="-10" y="-2.1" width="20" height="1.4" rx=".7" fill="#fff" opacity=".38"/>
<rect x="-20" y="-8.5" width="9" height="17" rx="3.8" fill="url(#rub)"/>
<rect x="11" y="-8.5" width="9" height="17" rx="3.8" fill="url(#rub)"/>
<rect x="-18.6" y="-7.1" width="6.2" height="4.4" rx="2.2" fill="#fff" opacity=".12"/>
<rect x="12.4" y="-7.1" width="6.2" height="4.4" rx="2.2" fill="#fff" opacity=".12"/>
<rect x="-11.6" y="-5" width="2.8" height="10" rx="1.4" fill="url(#plv)"/>
<rect x="8.8" y="-5" width="2.8" height="10" rx="1.4" fill="url(#plv)"/>
</g><g transform="translate(86 40) rotate(30) scale(0.9)">
<rect x="-12" y="-2.1" width="24" height="4.2" rx="2.1" fill="url(#met)"/>
<rect x="-10" y="-2.1" width="20" height="1.4" rx=".7" fill="#fff" opacity=".38"/>
<rect x="-20" y="-8.5" width="9" height="17" rx="3.8" fill="url(#rub)"/>
<rect x="11" y="-8.5" width="9" height="17" rx="3.8" fill="url(#rub)"/>
<rect x="-18.6" y="-7.1" width="6.2" height="4.4" rx="2.2" fill="#fff" opacity=".12"/>
<rect x="12.4" y="-7.1" width="6.2" height="4.4" rx="2.2" fill="#fff" opacity=".12"/>
<rect x="-11.6" y="-5" width="2.8" height="10" rx="1.4" fill="url(#plv)"/>
<rect x="8.8" y="-5" width="2.8" height="10" rx="1.4" fill="url(#plv)"/>
</g><path d="M46 30 C 52 25, 68 25, 74 30" fill="none" stroke="#9AA2B5" stroke-width="2" stroke-dasharray="1.5 4" stroke-linecap="round" opacity=".7"/></svg>