<svg xmlns="http://www.w3.org/2000/svg" viewBox="0 0 120 120"><defs>
<linearGradient id="met" x1="0" y1="0" x2="0" y2="1"><stop offset="0" stop-color="#F4F6FA"/><stop offset=".45" stop-color="#C6CCD9"/><stop offset="1" stop-color="#8E95A6"/></linearGradient>
<linearGradient id="stl" x1="0" y1="0" x2="0" y2="1"><stop offset="0" stop-color="#4C5263"/><stop offset="1" stop-color="#252935"/></linearGradient>
<linearGradient id="rub" x1="0" y1="0" x2="0" y2="1"><stop offset="0" stop-color="#3B4152"/><stop offset=".5" stop-color="#242836"/><stop offset="1" stop-color="#161922"/></linearGradient>
<linearGradient id="pad" x1="0" y1="0" x2="0" y2="1"><stop offset="0" stop-color="#f7ad3c"/><stop offset="1" stop-color="#b17010"/></linearGradient>
<radialGradient id="pl" cx=".36" cy=".3" r="1"><stop offset="0" stop-color="#f9bf68"/><stop offset=".55" stop-color="#F5980B"/><stop offset="1" stop-color="#9a6312"/></radialGradient>
<linearGradient id="plv" x1="0" y1="0" x2="0" y2="1"><stop offset="0" stop-color="#f8b959"/><stop offset=".5" stop-color="#F5980B"/><stop offset="1" stop-color="#a36811"/></linearGradient>
<radialGradient id="glow" cx=".5" cy=".45" r=".62"><stop offset="0" stop-color="#F5980B" stop-opacity=".17"/><stop offset="1" stop-color="#F5980B" stop-opacity="0"/></radialGradient>
<radialGradient id="shd" cx=".5" cy=".5" r=".5"><stop offset="0" stop-color="#12141C" stop-opacity=".2"/><stop offset=".65" stop-color="#12141C" stop-opacity=".08"/><stop offset="1" stop-color="#12141C" stop-opacity="0"/></radialGradient>
</defs><ellipse cx="60" cy="54" rx="55" ry="47" fill="url(#glow)"/><ellipse cx="60" cy="101" rx="36" ry="7" fill="url(#shd)"/><g transform="translate(60 62) rotate(0) scale(1.15)">
<rect x="-12" y="-2.1" width="24" height="4.2" rx="2.1" fill="url(#met)"/>
<rect x="-10" y="-2.1" width="20" height="1.4" rx=".7" fill="#fff" opacity=".38"/>
<rect x="-20" y="-8.5" width="9" height="17" rx="3.8" fill="url(#rub)"/>
<rect x="11" y="-8.5" width="9" height="17" rx="3.8" fill="url(#rub)"/>
<rect x="-18.6" y="-7.1" width="6.2" height="4.4" rx="2.2" fill="#fff" opacity=".12"/>
<rect x="12.4" y="-7.1" width="6.2" height="4.4" rx="2.2" fill="#fff" opacity=".12"/>
<rect x="-11.6" y="-5" width="2.8" height="10" rx="1.4" fill="url(#plv)"/>
<rect x="8.8" y="-5" width="2.8" height="10" rx="1.4" fill="url(#plv)"/>
</g><path d="M28 66 C 20 52, 24 38, 36 28" fill="none" stroke="#9AA2B5" stroke-width="2.2" stroke-dasharray="1.5 4.5" stroke-linecap="round" opacity=".75"/>
   <path d="M92 66 C 100 52, 96 38, 84 28" fill="none" stroke="#9AA2B5" stroke-width="2.2" stroke-dasharray="1.5 4.5" stroke-linecap="round" opacity=".75"/>
   <path d="M33 25 l3 3 M36 28 l-4 1" stroke="#9AA2B5" stroke-width="2" stroke-linecap="round" opacity=".75"/>
   <path d="M87 25 l-3 3 M84 28 l4 1" stroke="#9AA2B5" stroke-width="2" stroke-linecap="round" opacity=".75"/></svg>