<svg xmlns="http://www.w3.org/2000/svg" viewBox="0 0 120 120"><defs>
<linearGradient id="met" x1="0" y1="0" x2="0" y2="1"><stop offset="0" stop-color="#F4F6FA"/><stop offset=".45" stop-color="#C6CCD9"/><stop offset="1" stop-color="#8E95A6"/></linearGradient>
<linearGradient id="stl" x1="0" y1="0" x2="0" y2="1"><stop offset="0" stop-color="#4C5263"/><stop offset="1" stop-color="#252935"/></linearGradient>
<linearGradient id="rub" x1="0" y1="0" x2="0" y2="1"><stop offset="0" stop-color="#3B4152"/><stop offset=".5" stop-color="#242836"/><stop offset="1" stop-color="#161922"/></linearGradient>
<linearGradient id="pad" x1="0" y1="0" x2="0" y2="1"><stop offset="0" stop-color="#58a6fb"/><stop offset="1" stop-color="#266bb7"/></linearGradient>
<radialGradient id="pl" cx=".36" cy=".3" r="1"><stop offset="0" stop-color="#7dbafc"/><stop offset=".55" stop-color="#2E90FA"/><stop offset="1" stop-color="#235ea1"/></radialGradient>
<linearGradient id="plv" x1="0" y1="0" x2="0" y2="1"><stop offset="0" stop-color="#71b4fc"/><stop offset=".5" stop-color="#2E90FA"/><stop offset="1" stop-color="#2463aa"/></linearGradient>
<radialGradient id="glow" cx=".5" cy=".45" r=".62"><stop offset="0" stop-color="#2E90FA" stop-opacity=".17"/><stop offset="1" stop-color="#2E90FA" stop-opacity="0"/></radialGradient>
<radialGradient id="shd" cx=".5" cy=".5" r=".5"><stop offset="0" stop-color="#12141C" stop-opacity=".2"/><stop offset=".65" stop-color="#12141C" stop-opacity=".08"/><stop offset="1" stop-color="#12141C" stop-opacity="0"/></radialGradient>
</defs><ellipse cx="60" cy="54" rx="55" ry="47" fill="url(#glow)"/><ellipse cx="60" cy="99" rx="46" ry="6" fill="url(#shd)"/>
<rect x="12" y="84" width="96" height="10" rx="5" fill="url(#pad)"/>
<rect x="16" y="86" width="88" height="2.8" rx="1.4" fill="#fff" opacity=".16"/>
<circle cx="60" cy="46" r="21" fill="url(#met)"/>
<circle cx="60" cy="46" r="17.6" fill="#FDFDFE"/>
<circle cx="60" cy="46" r="17.6" fill="none" stroke="#12141C" stroke-opacity=".07"/>
<rect x="56.6" y="20" width="6.8" height="6" rx="2.4" fill="url(#stl)"/>
<path d="M60 46 L60 34" stroke="url(#plv)" stroke-width="3.4" stroke-linecap="round"/>
<path d="M60 46 L69 51" stroke="#39404F" stroke-width="2.6" stroke-linecap="round"/>
<circle cx="60" cy="46" r="2.6" fill="#252935"/></svg>