<svg xmlns="http://www.w3.org/2000/svg" viewBox="0 0 120 120"><defs>
<linearGradient id="met" x1="0" y1="0" x2="0" y2="1"><stop offset="0" stop-color="#F4F6FA"/><stop offset=".45" stop-color="#C6CCD9"/><stop offset="1" stop-color="#8E95A6"/></linearGradient>
<linearGradient id="stl" x1="0" y1="0" x2="0" y2="1"><stop offset="0" stop-color="#4C5263"/><stop offset="1" stop-color="#252935"/></linearGradient>
<linearGradient id="rub" x1="0" y1="0" x2="0" y2="1"><stop offset="0" stop-color="#3B4152"/><stop offset=".5" stop-color="#242836"/><stop offset="1" stop-color="#161922"/></linearGradient>
<linearGradient id="pad" x1="0" y1="0" x2="0" y2="1"><stop offset="0" stop-color="#fdc04e"/><stop offset="1" stop-color="#b78120"/></linearGradient>
<radialGradient id="pl" cx=".36" cy=".3" r="1"><stop offset="0" stop-color="#fece76"/><stop offset=".55" stop-color="#FDB022"/><stop offset="1" stop-color="#9f7220"/></radialGradient>
<linearGradient id="plv" x1="0" y1="0" x2="0" y2="1"><stop offset="0" stop-color="#fec969"/><stop offset=".5" stop-color="#FDB022"/><stop offset="1" stop-color="#a87820"/></linearGradient>
<radialGradient id="glow" cx=".5" cy=".45" r=".62"><stop offset="0" stop-color="#FDB022" stop-opacity=".17"/><stop offset="1" stop-color="#FDB022" stop-opacity="0"/></radialGradient>
<radialGradient id="shd" cx=".5" cy=".5" r=".5"><stop offset="0" stop-color="#12141C" stop-opacity=".2"/><stop offset=".65" stop-color="#12141C" stop-opacity=".08"/><stop offset="1" stop-color="#12141C" stop-opacity="0"/></radialGradient>
</defs><ellipse cx="60" cy="54" rx="55" ry="47" fill="url(#glow)"/><ellipse cx="60" cy="101" rx="46" ry="7" fill="url(#shd)"/>
<rect x="66" y="70" width="40" height="12" rx="5" fill="url(#pad)"/>
<rect x="72" y="82" width="5" height="14" rx="2.4" fill="url(#stl)"/>
<rect x="94" y="82" width="5" height="14" rx="2.4" fill="url(#stl)"/>
<rect x="66" y="96.4" width="16" height="3.6" rx="1.8" fill="url(#stl)"/>
<rect x="88" y="96.4" width="16" height="3.6" rx="1.8" fill="url(#stl)"/><rect x="8" y="61.7" width="96" height="4.6" rx="2.3" fill="url(#met)"/><rect x="10" y="62.6" width="92" height="1.5" rx=".75" fill="#fff" opacity=".4"/><rect x="40" y="55" width="26" height="14" rx="7" fill="url(#rub)"/><rect x="43" y="57.4" width="20" height="3.4" rx="1.7" fill="#fff" opacity=".12"/><circle cx="22" cy="64" r="15" fill="url(#pl)"/><circle cx="22" cy="64" r="8.25" fill="none" stroke="#fff" stroke-opacity=".18" stroke-width="2.4"/><circle cx="22" cy="64" r="2.4" fill="#12141C" fill-opacity=".3"/><circle cx="96" cy="64" r="15" fill="url(#pl)"/><circle cx="96" cy="64" r="8.25" fill="none" stroke="#fff" stroke-opacity=".18" stroke-width="2.4"/><circle cx="96" cy="64" r="2.4" fill="#12141C" fill-opacity=".3"/></svg>