<svg xmlns="http://www.w3.org/2000/svg" viewBox="0 0 120 120"><defs>
<linearGradient id="met" x1="0" y1="0" x2="0" y2="1"><stop offset="0" stop-color="#F4F6FA"/><stop offset=".45" stop-color="#C6CCD9"/><stop offset="1" stop-color="#8E95A6"/></linearGradient>
<linearGradient id="stl" x1="0" y1="0" x2="0" y2="1"><stop offset="0" stop-color="#4C5263"/><stop offset="1" stop-color="#252935"/></linearGradient>
<linearGradient id="rub" x1="0" y1="0" x2="0" y2="1"><stop offset="0" stop-color="#3B4152"/><stop offset=".5" stop-color="#242836"/><stop offset="1" stop-color="#161922"/></linearGradient>
<linearGradient id="pad" x1="0" y1="0" x2="0" y2="1"><stop offset="0" stop-color="#3cb7f0"/><stop offset="1" stop-color="#0d7aae"/></linearGradient>
<radialGradient id="pl" cx=".36" cy=".3" r="1"><stop offset="0" stop-color="#68c7f3"/><stop offset=".55" stop-color="#0BA5EC"/><stop offset="1" stop-color="#0e6b99"/></radialGradient>
<linearGradient id="plv" x1="0" y1="0" x2="0" y2="1"><stop offset="0" stop-color="#59c2f2"/><stop offset=".5" stop-color="#0BA5EC"/><stop offset="1" stop-color="#0e71a1"/></linearGradient>
<radialGradient id="glow" cx=".5" cy=".45" r=".62"><stop offset="0" stop-color="#0BA5EC" stop-opacity=".17"/><stop offset="1" stop-color="#0BA5EC" stop-opacity="0"/></radialGradient>
<radialGradient id="shd" cx=".5" cy=".5" r=".5"><stop offset="0" stop-color="#12141C" stop-opacity=".2"/><stop offset=".65" stop-color="#12141C" stop-opacity=".08"/><stop offset="1" stop-color="#12141C" stop-opacity="0"/></radialGradient>
</defs><ellipse cx="60" cy="54" rx="55" ry="47" fill="url(#glow)"/><ellipse cx="60" cy="101" rx="44" ry="7" fill="url(#shd)"/>
<rect x="34" y="60" width="36" height="10" rx="5" fill="url(#pad)"/>
<g transform="translate(38 62) rotate(-16)"><rect x="-4" y="-36" width="11" height="38" rx="5" fill="url(#pad)"/></g>
<rect x="40" y="70" width="5.4" height="26" rx="2.6" fill="url(#stl)"/>
<rect x="60" y="70" width="5.4" height="26" rx="2.6" fill="url(#stl)"/>
<rect x="34" y="96.4" width="18" height="3.6" rx="1.8" fill="url(#stl)"/>
<rect x="54" y="96.4" width="18" height="3.6" rx="1.8" fill="url(#stl)"/>
<g transform="translate(70 66) rotate(58)"><rect x="0" y="-2.4" width="26" height="4.8" rx="2.4" fill="url(#met)"/></g>
<g transform="translate(85 87)"><rect x="-6" y="-9" width="12" height="18" rx="6" fill="url(#pad)"/><rect x="-3.6" y="-6.6" width="4" height="13" rx="2" fill="#fff" opacity=".15"/></g>
<path d="M92 74 C 98 66, 98 56, 92 48" fill="none" stroke="#9AA2B5" stroke-width="2" stroke-dasharray="1.5 4" stroke-linecap="round" opacity=".7"/></svg>