<svg xmlns="http://www.w3.org/2000/svg" viewBox="0 0 120 120"><defs>
<linearGradient id="met" x1="0" y1="0" x2="0" y2="1"><stop offset="0" stop-color="#F4F6FA"/><stop offset=".45" stop-color="#C6CCD9"/><stop offset="1" stop-color="#8E95A6"/></linearGradient>
<linearGradient id="stl" x1="0" y1="0" x2="0" y2="1"><stop offset="0" stop-color="#4C5263"/><stop offset="1" stop-color="#252935"/></linearGradient>
<linearGradient id="rub" x1="0" y1="0" x2="0" y2="1"><stop offset="0" stop-color="#3B4152"/><stop offset=".5" stop-color="#242836"/><stop offset="1" stop-color="#161922"/></linearGradient>
<linearGradient id="pad" x1="0" y1="0" x2="0" y2="1"><stop offset="0" stop-color="#f16bc9"/><stop offset="1" stop-color="#ac378c"/></linearGradient>
<radialGradient id="pl" cx=".36" cy=".3" r="1"><stop offset="0" stop-color="#f48cd5"/><stop offset=".55" stop-color="#EE46BC"/><stop offset="1" stop-color="#96327c"/></radialGradient>
<linearGradient id="plv" x1="0" y1="0" x2="0" y2="1"><stop offset="0" stop-color="#f381d1"/><stop offset=".5" stop-color="#EE46BC"/><stop offset="1" stop-color="#9f3482"/></linearGradient>
<radialGradient id="glow" cx=".5" cy=".45" r=".62"><stop offset="0" stop-color="#EE46BC" stop-opacity=".17"/><stop offset="1" stop-color="#EE46BC" stop-opacity="0"/></radialGradient>
<radialGradient id="shd" cx=".5" cy=".5" r=".5"><stop offset="0" stop-color="#12141C" stop-opacity=".2"/><stop offset=".65" stop-color="#12141C" stop-opacity=".08"/><stop offset="1" stop-color="#12141C" stop-opacity="0"/></radialGradient>
</defs><ellipse cx="60" cy="54" rx="55" ry="47" fill="url(#glow)"/><ellipse cx="60" cy="101" rx="46" ry="7" fill="url(#shd)"/>
<rect x="24" y="58" width="52" height="10" rx="5" fill="url(#pad)"/>
<rect x="27" y="60" width="46" height="3" rx="1.5" fill="#fff" opacity=".15"/>
<rect x="32" y="68" width="5.4" height="28" rx="2.6" fill="url(#stl)"/>
<rect x="62" y="68" width="5.4" height="28" rx="2.6" fill="url(#stl)"/>
<rect x="26" y="96.4" width="18" height="3.6" rx="1.8" fill="url(#stl)"/>
<rect x="56" y="96.4" width="18" height="3.6" rx="1.8" fill="url(#stl)"/>
<g transform="translate(76 62) rotate(34)"><rect x="0" y="-2.4" width="30" height="4.8" rx="2.4" fill="url(#met)"/></g>
<g transform="translate(100 79)"><rect x="-6" y="-9" width="12" height="18" rx="6" fill="url(#pad)"/><rect x="-3.6" y="-6.6" width="4" height="13" rx="2" fill="#fff" opacity=".15"/></g>
<path d="M96 52 C 104 58, 106 66, 104 72" fill="none" stroke="#9AA2B5" stroke-width="2" stroke-dasharray="1.5 4" stroke-linecap="round" opacity=".7"/></svg>