<svg xmlns="http://www.w3.org/2000/svg" viewBox="0 0 120 120"><defs>
<linearGradient id="met" x1="0" y1="0" x2="0" y2="1"><stop offset="0" stop-color="#F4F6FA"/><stop offset=".45" stop-color="#C6CCD9"/><stop offset="1" stop-color="#8E95A6"/></linearGradient>
<linearGradient id="stl" x1="0" y1="0" x2="0" y2="1"><stop offset="0" stop-color="#4C5263"/><stop offset="1" stop-color="#252935"/></linearGradient>
<linearGradient id="rub" x1="0" y1="0" x2="0" y2="1"><stop offset="0" stop-color="#3B4152"/><stop offset=".5" stop-color="#242836"/><stop offset="1" stop-color="#161922"/></linearGradient>
<linearGradient id="pad" x1="0" y1="0" x2="0" y2="1"><stop offset="0" stop-color="#85d149"/><stop offset="1" stop-color="#4d911c"/></linearGradient>
<radialGradient id="pl" cx=".36" cy=".3" r="1"><stop offset="0" stop-color="#a0dc72"/><stop offset=".55" stop-color="#66C61C"/><stop offset="1" stop-color="#447f1c"/></radialGradient>
<linearGradient id="plv" x1="0" y1="0" x2="0" y2="1"><stop offset="0" stop-color="#97d865"/><stop offset=".5" stop-color="#66C61C"/><stop offset="1" stop-color="#48861c"/></linearGradient>
<radialGradient id="glow" cx=".5" cy=".45" r=".62"><stop offset="0" stop-color="#66C61C" stop-opacity=".17"/><stop offset="1" stop-color="#66C61C" stop-opacity="0"/></radialGradient>
<radialGradient id="shd" cx=".5" cy=".5" r=".5"><stop offset="0" stop-color="#12141C" stop-opacity=".2"/><stop offset=".65" stop-color="#12141C" stop-opacity=".08"/><stop offset="1" stop-color="#12141C" stop-opacity="0"/></radialGradient>
</defs><ellipse cx="60" cy="54" rx="55" ry="47" fill="url(#glow)"/><ellipse cx="60" cy="101" rx="42" ry="7" fill="url(#shd)"/>
<rect x="34" y="82" width="52" height="14" rx="5" fill="url(#stl)"/>
<rect x="37" y="84.4" width="46" height="3.4" rx="1.7" fill="#fff" opacity=".1"/>
<rect x="42" y="74" width="36" height="8" rx="3.6" fill="url(#plv)"/>
<path d="M60 62 v-16 M53 52 l7 -7 7 7" fill="none" stroke="#9AA2B5" stroke-width="2.4" stroke-linecap="round" stroke-linejoin="round" opacity=".8"/>
<rect x="30" y="24" width="60" height="9" rx="4.5" fill="url(#pad)"/>
<rect x="33" y="25.8" width="54" height="2.6" rx="1.3" fill="#fff" opacity=".16"/></svg>