<svg xmlns="http://www.w3.org/2000/svg" viewBox="0 0 120 120"><defs>
<linearGradient id="met" x1="0" y1="0" x2="0" y2="1"><stop offset="0" stop-color="#F4F6FA"/><stop offset=".45" stop-color="#C6CCD9"/><stop offset="1" stop-color="#8E95A6"/></linearGradient>
<linearGradient id="stl" x1="0" y1="0" x2="0" y2="1"><stop offset="0" stop-color="#4C5263"/><stop offset="1" stop-color="#252935"/></linearGradient>
<linearGradient id="rub" x1="0" y1="0" x2="0" y2="1"><stop offset="0" stop-color="#3B4152"/><stop offset=".5" stop-color="#242836"/><stop offset="1" stop-color="#161922"/></linearGradient>
<linearGradient id="pad" x1="0" y1="0" x2="0" y2="1"><stop offset="0" stop-color="#3fc58e"/><stop offset="1" stop-color="#108558"/></linearGradient>
<radialGradient id="pl" cx=".36" cy=".3" r="1"><stop offset="0" stop-color="#6ad2a8"/><stop offset=".55" stop-color="#0FB672"/><stop offset="1" stop-color="#107550"/></radialGradient>
<linearGradient id="plv" x1="0" y1="0" x2="0" y2="1"><stop offset="0" stop-color="#5ccd9f"/><stop offset=".5" stop-color="#0FB672"/><stop offset="1" stop-color="#107c53"/></linearGradient>
<radialGradient id="glow" cx=".5" cy=".45" r=".62"><stop offset="0" stop-color="#0FB672" stop-opacity=".17"/><stop offset="1" stop-color="#0FB672" stop-opacity="0"/></radialGradient>
<radialGradient id="shd" cx=".5" cy=".5" r=".5"><stop offset="0" stop-color="#12141C" stop-opacity=".2"/><stop offset=".65" stop-color="#12141C" stop-opacity=".08"/><stop offset="1" stop-color="#12141C" stop-opacity="0"/></radialGradient>
</defs><ellipse cx="60" cy="54" rx="55" ry="47" fill="url(#glow)"/><ellipse cx="60" cy="99" rx="46" ry="6" fill="url(#shd)"/><rect x="8" y="70.7" width="104" height="4.6" rx="2.3" fill="url(#met)"/><rect x="10" y="71.6" width="100" height="1.5" rx=".75" fill="#fff" opacity=".4"/><circle cx="26" cy="73" r="17" fill="url(#pl)"/><circle cx="26" cy="73" r="9.350000000000001" fill="none" stroke="#fff" stroke-opacity=".18" stroke-width="2.72"/><circle cx="26" cy="73" r="2.72" fill="#12141C" fill-opacity=".3"/><circle cx="94" cy="73" r="17" fill="url(#pl)"/><circle cx="94" cy="73" r="9.350000000000001" fill="none" stroke="#fff" stroke-opacity=".18" stroke-width="2.72"/><circle cx="94" cy="73" r="2.72" fill="#12141C" fill-opacity=".3"/><path d="M60 50 v12 M54 56 l6 6 6 -6" fill="none" stroke="#9AA2B5" stroke-width="2.4" stroke-linecap="round" stroke-linejoin="round" opacity=".8" transform="rotate(180 60 61)"/></svg>