<svg xmlns="http://www.w3.org/2000/svg" viewBox="0 0 120 120"><defs>
<linearGradient id="met" x1="0" y1="0" x2="0" y2="1"><stop offset="0" stop-color="#F4F6FA"/><stop offset=".45" stop-color="#C6CCD9"/><stop offset="1" stop-color="#8E95A6"/></linearGradient>
<linearGradient id="stl" x1="0" y1="0" x2="0" y2="1"><stop offset="0" stop-color="#4C5263"/><stop offset="1" stop-color="#252935"/></linearGradient>
<linearGradient id="rub" x1="0" y1="0" x2="0" y2="1"><stop offset="0" stop-color="#3B4152"/><stop offset=".5" stop-color="#242836"/><stop offset="1" stop-color="#161922"/></linearGradient>
<linearGradient id="pad" x1="0" y1="0" x2="0" y2="1"><stop offset="0" stop-color="#f16bc9"/><stop offset="1" stop-color="#ac378c"/></linearGradient>
<radialGradient id="pl" cx=".36" cy=".3" r="1"><stop offset="0" stop-color="#f48cd5"/><stop offset=".55" stop-color="#EE46BC"/><stop offset="1" stop-color="#96327c"/></radialGradient>
<linearGradient id="plv" x1="0" y1="0" x2="0" y2="1"><stop offset="0" stop-color="#f381d1"/><stop offset=".5" stop-color="#EE46BC"/><stop offset="1" stop-color="#9f3482"/></linearGradient>
<radialGradient id="glow" cx=".5" cy=".45" r=".62"><stop offset="0" stop-color="#EE46BC" stop-opacity=".17"/><stop offset="1" stop-color="#EE46BC" stop-opacity="0"/></radialGradient>
<radialGradient id="shd" cx=".5" cy=".5" r=".5"><stop offset="0" stop-color="#12141C" stop-opacity=".2"/><stop offset=".65" stop-color="#12141C" stop-opacity=".08"/><stop offset="1" stop-color="#12141C" stop-opacity="0"/></radialGradient>
</defs><ellipse cx="60" cy="54" rx="55" ry="47" fill="url(#glow)"/><ellipse cx="60" cy="99" rx="48" ry="6" fill="url(#shd)"/><rect x="8" y="66.7" width="104" height="4.6" rx="2.3" fill="url(#met)"/><rect x="10" y="67.6" width="100" height="1.5" rx=".75" fill="#fff" opacity=".4"/><circle cx="25" cy="69" r="19" fill="url(#pl)"/><circle cx="25" cy="69" r="10.450000000000001" fill="none" stroke="#fff" stroke-opacity=".18" stroke-width="3.04"/><circle cx="25" cy="69" r="3.04" fill="#12141C" fill-opacity=".3"/><circle cx="95" cy="69" r="19" fill="url(#pl)"/><circle cx="95" cy="69" r="10.450000000000001" fill="none" stroke="#fff" stroke-opacity=".18" stroke-width="3.04"/><circle cx="95" cy="69" r="3.04" fill="#12141C" fill-opacity=".3"/><path d="M60 40 v14 M54 48 l6 6 6 -6" fill="none" stroke="#9AA2B5" stroke-width="2.4" stroke-linecap="round" stroke-linejoin="round" opacity=".8"/></svg>