<svg xmlns="http://www.w3.org/2000/svg" viewBox="0 0 120 120"><defs>
<linearGradient id="met" x1="0" y1="0" x2="0" y2="1"><stop offset="0" stop-color="#F4F6FA"/><stop offset=".45" stop-color="#C6CCD9"/><stop offset="1" stop-color="#8E95A6"/></linearGradient>
<linearGradient id="stl" x1="0" y1="0" x2="0" y2="1"><stop offset="0" stop-color="#4C5263"/><stop offset="1" stop-color="#252935"/></linearGradient>
<linearGradient id="rub" x1="0" y1="0" x2="0" y2="1"><stop offset="0" stop-color="#3B4152"/><stop offset=".5" stop-color="#242836"/><stop offset="1" stop-color="#161922"/></linearGradient>
<linearGradient id="pad" x1="0" y1="0" x2="0" y2="1"><stop offset="0" stop-color="#3cb7f0"/><stop offset="1" stop-color="#0d7aae"/></linearGradient>
<radialGradient id="pl" cx=".36" cy=".3" r="1"><stop offset="0" stop-color="#68c7f3"/><stop offset=".55" stop-color="#0BA5EC"/><stop offset="1" stop-color="#0e6b99"/></radialGradient>
<linearGradient id="plv" x1="0" y1="0" x2="0" y2="1"><stop offset="0" stop-color="#59c2f2"/><stop offset=".5" stop-color="#0BA5EC"/><stop offset="1" stop-color="#0e71a1"/></linearGradient>
<radialGradient id="glow" cx=".5" cy=".45" r=".62"><stop offset="0" stop-color="#0BA5EC" stop-opacity=".17"/><stop offset="1" stop-color="#0BA5EC" stop-opacity="0"/></radialGradient>
<radialGradient id="shd" cx=".5" cy=".5" r=".5"><stop offset="0" stop-color="#12141C" stop-opacity=".2"/><stop offset=".65" stop-color="#12141C" stop-opacity=".08"/><stop offset="1" stop-color="#12141C" stop-opacity="0"/></radialGradient>
</defs><ellipse cx="60" cy="54" rx="55" ry="47" fill="url(#glow)"/><ellipse cx="60" cy="101" rx="44" ry="7" fill="url(#shd)"/>
<rect x="26" y="34" width="6" height="62" rx="3" fill="url(#stl)"/>
<rect x="88" y="34" width="6" height="62" rx="3" fill="url(#stl)"/>
<rect x="19" y="96.4" width="20" height="3.6" rx="1.8" fill="url(#stl)"/>
<rect x="81" y="96.4" width="20" height="3.6" rx="1.8" fill="url(#stl)"/>
<path d="M24 46 h10 v6 h-10 z" fill="url(#met)"/><path d="M86 46 h10 v6 h-10 z" fill="url(#met)"/><rect x="8" y="41.7" width="104" height="4.6" rx="2.3" fill="url(#met)"/><rect x="10" y="41.7" width="100" height="1.5" rx=".75" fill="#fff" opacity=".4"/><rect x="21" y="27" width="7" height="34" rx="3.0434782608695654" fill="url(#plv)"/><rect x="22.4" y="29.38" width="1.82" height="29.24" rx="0.91" fill="#fff" opacity=".16"/><rect x="92" y="27" width="7" height="34" rx="3.0434782608695654" fill="url(#plv)"/><rect x="93.4" y="29.38" width="1.82" height="29.24" rx="0.91" fill="#fff" opacity=".16"/><rect x="30.4" y="32" width="5.6" height="24" rx="2.4347826086956523" fill="url(#plv)"/><rect x="31.52" y="33.68" width="1.456" height="20.64" rx="0.728" fill="#fff" opacity=".16"/><rect x="84" y="32" width="5.6" height="24" rx="2.4347826086956523" fill="url(#plv)"/><rect x="85.12" y="33.68" width="1.456" height="20.64" rx="0.728" fill="#fff" opacity=".16"/><rect x="37.4" y="39.4" width="2.6" height="9.2" rx="1.3" fill="url(#stl)"/><rect x="80" y="39.4" width="2.6" height="9.2" rx="1.3" fill="url(#stl)"/></svg>