<svg xmlns="http://www.w3.org/2000/svg" viewBox="0 0 120 120"><defs>
<linearGradient id="met" x1="0" y1="0" x2="0" y2="1"><stop offset="0" stop-color="#F4F6FA"/><stop offset=".45" stop-color="#C6CCD9"/><stop offset="1" stop-color="#8E95A6"/></linearGradient>
<linearGradient id="stl" x1="0" y1="0" x2="0" y2="1"><stop offset="0" stop-color="#4C5263"/><stop offset="1" stop-color="#252935"/></linearGradient>
<linearGradient id="rub" x1="0" y1="0" x2="0" y2="1"><stop offset="0" stop-color="#3B4152"/><stop offset=".5" stop-color="#242836"/><stop offset="1" stop-color="#161922"/></linearGradient>
<linearGradient id="pad" x1="0" y1="0" x2="0" y2="1"><stop offset="0" stop-color="#3fc58e"/><stop offset="1" stop-color="#108558"/></linearGradient>
<radialGradient id="pl" cx=".36" cy=".3" r="1"><stop offset="0" stop-color="#6ad2a8"/><stop offset=".55" stop-color="#0FB672"/><stop offset="1" stop-color="#107550"/></radialGradient>
<linearGradient id="plv" x1="0" y1="0" x2="0" y2="1"><stop offset="0" stop-color="#5ccd9f"/><stop offset=".5" stop-color="#0FB672"/><stop offset="1" stop-color="#107c53"/></linearGradient>
<radialGradient id="glow" cx=".5" cy=".45" r=".62"><stop offset="0" stop-color="#0FB672" stop-opacity=".17"/><stop offset="1" stop-color="#0FB672" stop-opacity="0"/></radialGradient>
<radialGradient id="shd" cx=".5" cy=".5" r=".5"><stop offset="0" stop-color="#12141C" stop-opacity=".2"/><stop offset=".65" stop-color="#12141C" stop-opacity=".08"/><stop offset="1" stop-color="#12141C" stop-opacity="0"/></radialGradient>
</defs><ellipse cx="60" cy="54" rx="55" ry="47" fill="url(#glow)"/><ellipse cx="60" cy="101" rx="42" ry="7" fill="url(#shd)"/>
<rect x="20" y="22" width="5.4" height="74" rx="2.6" fill="url(#stl)"/>
<rect x="94.6" y="22" width="5.4" height="74" rx="2.6" fill="url(#stl)"/>
<rect x="14" y="96.4" width="18" height="3.6" rx="1.8" fill="url(#stl)"/>
<rect x="88" y="96.4" width="18" height="3.6" rx="1.8" fill="url(#stl)"/>
<rect x="18" y="18" width="84" height="6.4" rx="3.2" fill="url(#met)"/>
<rect x="21" y="19.3" width="78" height="1.6" rx=".8" fill="#fff" opacity=".42"/>
<rect x="38" y="16" width="10" height="10.5" rx="4" fill="url(#rub)"/>
<rect x="72" y="16" width="10" height="10.5" rx="4" fill="url(#rub)"/>
<path d="M60 34 v12 M53 52 l7 -8 7 8" fill="none" stroke="#9AA2B5" stroke-width="2.4" stroke-linecap="round" stroke-linejoin="round" opacity=".8"/></svg>